# xmcd CD database file
#
# Track frame offsets:
#	150
#	10087
#	22951
#	32754
#	51840
#	68000
#	79698
#	88704
#	99569
#	112582
#	125606
#	143439
#	164077
#
# Disc length: 2297 seconds
#
# Revision: 2
# Processed by: cddbd v1.5.2PL0 Copyright (c) Steve Scherf et al.
# Submitted via: CDex 1.70beta2
#
DISCID=9908f70d
DTITLE=Johnny Cash Experience - Memories Are Made Of This
DYEAR=2011
DGENRE=Country
TTITLE0=Blue Train
TTITLE1=Tennessee Flat Top Box
TTITLE2=A Thing Called Love
TTITLE3=The Running Kid
TTITLE4=Cat´s In The Cradle
TTITLE5=Sea of Hardbreak
TTITLE6=Luther Played The Boogie
TTITLE7=Bonanza
TTITLE8=Understand Your Man
TTITLE9=I Still Miss Someone
TTITLE10=Orange Blossom Special
TTITLE11=Hurt
TTITLE12=Bonus Track: Little Fauss and Big Halsy
EXTD=YEAR: 2011
EXTT0=
EXTT1=
EXTT2=
EXTT3=
EXTT4=
EXTT5=
EXTT6=
EXTT7=
EXTT8=
EXTT9=
EXTT10=
EXTT11=
EXTT12=
PLAYORDER=
